<svg xmlns="http://www.w3.org/2000/svg" width="117" height="117" viewBox="0 0 117 117" fill="none">
  <g clip-path="url(#a)">
    <path d="M93.44 0H23.56C10.55 0 0 10.549 0 23.56v69.88C0 106.451 10.549 117 23.56 117h69.88c13.012 0 23.56-10.548 23.56-23.56V23.56C117 10.55 106.452 0 93.44 0" fill="#23be00"/>
    <path d="M51 27h.734l1.368.003q.969 0 1.939.004l4.372.007v13.32h13.68v10.92h-13.68c.01 3.242.01 3.242.025 6.483q.01 1.986.017 3.971.003 1.448.012 2.894l.006 1.529c-.246 4.17-.246 4.17 1.185 7.863 1.347 1.246 3.1 1.873 4.928 1.857a13 13 0 0 0 3.06-.552l.448-.128q.68-.195 1.359-.397l1.26-.367.752-.223.337-.1.295-.088c.236-.062.236-.062.476-.062v12.84c-3.745 1.05-3.745 1.05-5.4 1.32l-.32.055c-1.69.277-3.37.34-5.08.343l-.297.001c-1.753.004-3.474-.133-5.193-.489l-.299-.061c-3.107-.662-5.942-1.66-8.251-3.929l-.303-.294c-2.844-2.927-3.468-7.035-3.478-10.936l-.007-.905q-.008-1.082-.011-2.164l-.014-2.493q-.048-7.983-.027-15.968h-6.36v-10.92l1.92-.12c.464-.103.877-.205 1.32-.36l.297-.1c1.446-.535 2.954-1.426 4.03-2.54.116-.118.116-.118.233-.24h.24l.093-.207c.164-.303.358-.536.582-.798 1.886-2.33 2.62-5.15 3.134-8.044l.055-.308.048-.274c.082-.355.136-.327.515-.343" fill="#fff"/>
  </g>
  <defs>
    <clipPath id="a">
      <path fill="#fff" d="M0 0h117v117H0z"/>
    </clipPath>
  </defs>
</svg>
